<svg xmlns="http://www.w3.org/2000/svg" viewBox="0 0 64 64" fill="none">
  <defs>
    <linearGradient id="surface" x1="5" y1="4" x2="59" y2="60" gradientUnits="userSpaceOnUse">
      <stop stop-color="#6366F1"/>
      <stop offset="0.55" stop-color="#3B82F6"/>
      <stop offset="1" stop-color="#06B6D4"/>
    </linearGradient>
    <filter id="shadow" x="8" y="9" width="48" height="48" filterUnits="userSpaceOnUse" color-interpolation-filters="sRGB">
      <feDropShadow dx="0" dy="4" stdDeviation="3" flood-color="#1E1B4B" flood-opacity="0.24"/>
    </filter>
  </defs>
  <rect x="3" y="3" width="58" height="58" rx="16" fill="url(#surface)"/>
  <g filter="url(#shadow)">
    <path d="M14 23C14 19.134 17.134 16 21 16H41C44.866 16 48 19.134 48 23V34C48 37.866 44.866 41 41 41H32.95L25.707 48.243C25.077 48.873 24 48.427 24 47.536V41H21C17.134 41 14 37.866 14 34V23Z" fill="white"/>
  </g>
  <path d="M23 26H39" stroke="#4F46E5" stroke-width="3.5" stroke-linecap="round"/>
  <path d="M23 33H35" stroke="#06B6D4" stroke-width="3.5" stroke-linecap="round"/>
  <path d="M47 10L48.7 14.3L53 16L48.7 17.7L47 22L45.3 17.7L41 16L45.3 14.3L47 10Z" fill="#FDE68A"/>
  <circle cx="51" cy="31" r="3" fill="#A7F3D0"/>
</svg>
