<svg xmlns="http://www.w3.org/2000/svg" viewBox="0 0 64 64" fill="none">
  <defs>
    <linearGradient id="surface" x1="10" y1="8" x2="54" y2="56" gradientUnits="userSpaceOnUse">
      <stop stop-color="#6366F1"/>
      <stop offset="0.55" stop-color="#3B82F6"/>
      <stop offset="1" stop-color="#06B6D4"/>
    </linearGradient>
    <filter id="shadow" x="6" y="7" width="52" height="52" filterUnits="userSpaceOnUse" color-interpolation-filters="sRGB">
      <feDropShadow dx="0" dy="4" stdDeviation="3" flood-color="#1E1B4B" flood-opacity="0.24"/>
    </filter>
  </defs>
  <rect x="8" y="8" width="48" height="48" rx="14" fill="url(#surface)"/>
  <g filter="url(#shadow)">
    <path d="M18 24C18 20.686 20.686 18 24 18H40C43.314 18 46 20.686 46 24V33C46 36.314 43.314 39 40 39H32.828L26.586 45.243C25.956 45.873 24.879 45.427 24.879 44.536V39H24C20.686 39 18 36.314 18 33V24Z" fill="white"/>
  </g>
  <path d="M26 27H38" stroke="#4F46E5" stroke-width="3" stroke-linecap="round"/>
  <path d="M26 33H34" stroke="#06B6D4" stroke-width="3" stroke-linecap="round"/>
  <path d="M45 15L46.35 18.65L50 20L46.35 21.35L45 25L43.65 21.35L40 20L43.65 18.65L45 15Z" fill="#FDE68A"/>
  <circle cx="48" cy="31" r="2.5" fill="#A7F3D0"/>
</svg>
